<svg xmlns="http://www.w3.org/2000/svg" viewBox="0 0 147.52 147.51"><defs><style>.cls-1{fill:#0e0e0e;}</style></defs><g id="Layer_2" data-name="Layer 2"><g id="Layer_1-2" data-name="Layer 1"><path class="cls-1" d="M73.76,0a73.76,73.76,0,1,0,73.76,73.76A73.76,73.76,0,0,0,73.76,0Zm0,134.63a60.88,60.88,0,1,1,60.87-60.87A60.87,60.87,0,0,1,73.76,134.63Z"/><path class="cls-1" d="M96.32,73.66c3.49-5.09,6.63-9.7,9.81-14.29,3-4.34,6.22-5.41,9.5-3.21s3.75,5.86.93,10C110,75.88,103.31,85.54,96.33,95.71c-5.09-7.38-9.92-14.38-15.08-21.84l-15,21.75-15-21.72c-3.48,5-6.73,9.64-10,14.28-2.93,4.15-6.31,5.17-9.6,2.95s-3.42-5.76-.51-10C37.66,71.51,44.25,62,51.21,51.81l15.05,21.8c4.19-6.13,8.28-11.88,12.12-17.8,2-3.12,3.33-4.18,5.76-.18C87.82,61.67,92,67.38,96.32,73.66Z"/></g></g></svg>